<?xml version="1.0" encoding="utf-8"?>
<!-- Generator: Adobe Illustrator 17.0.0, SVG Export Plug-In . SVG Version: 6.00 Build 0)  -->
<!DOCTYPE svg PUBLIC "-//W3C//DTD SVG 1.1//EN" "http://www.w3.org/Graphics/SVG/1.1/DTD/svg11.dtd">
<svg version="1.1" id="Capa_1" xmlns="http://www.w3.org/2000/svg" xmlns:xlink="http://www.w3.org/1999/xlink" x="0px" y="0px"
	 width="441.023px" height="595.28px" viewBox="77.138 123.305 441.023 595.28"
	 enable-background="new 77.138 123.305 441.023 595.28" xml:space="preserve">
<path fill="#030104" d="M509.465,195.466c-174.035,0-203.504-66.075-203.767-66.695c-1.277-3.231-4.395-5.39-8.001-5.466
	c0,0-0.038,0-0.113,0c-3.475,0-6.649,2.16-8.001,5.315c-0.244,0.695-30.352,66.846-203.767,66.846c-4.827,0-8.677,3.925-8.677,8.659
	v87.741c8.064-4.892,20.097-12.254,28.347-17.308v-51.025c67.73-1.962,121.877-14.246,161.166-36.588
	c13.103-7.451,23.233-15.386,30.86-22.817c24.123,23.682,77.818,56.061,192.303,59.403v276.675
	c0,50.97-50.875,98.793-93.554,129.937c-40.355,29.447-81.699,50.169-98.627,58.162c-17.298-8.179-58.424-28.854-98.587-58.162
	c-12.225-8.921-25.12-19.212-37.302-30.551c-11.246,0.093-28.122-0.15-40.032-0.364c61.685,69.435,166.241,115.932,172.415,118.663
	c1.164,0.507,2.31,0.695,3.531,0.695c1.146,0,2.367-0.188,3.456-0.695c8.884-3.888,217.046-96.484,217.046-217.685V204.124
	C518.142,199.391,514.292,195.466,509.465,195.466z"/>
</svg>
